<svg fill="none" height="28" viewBox="0 0 28 28" width="28" xmlns="http://www.w3.org/2000/svg" xmlns:xlink="http://www.w3.org/1999/xlink"><clipPath id="a"><path d="m12.1889 4.66675h13.8667v13.8667h-13.8667z"/></clipPath><rect fill="#ff9066" height="28" rx="3" width="28"/><g clip-path="url(#a)"><path d="m14.5778 15.3943c.0468 0 .0936-.0057.1398-.0173l2.3111-.5778c.1017-.0254.1947-.078.2687-.1519l7.1026-7.10264c.2184-.2184.3386-.50845.3386-.81698s-.1202-.59858-.3386-.81698l-.9164-.91635c-.4368-.4368-1.1971-.4368-1.6339 0l-7.1026 7.10265c-.074.074-.1265.1666-.152.2681l-.5778 2.3111c-.0213.0852-.023.1741-.0048.26s.0557.1666.1098.2358c.054.0693.1231.1253.202.1638.079.0385.1656.0585.2535.0585zm8.0889-9.58297.9163.91635-.9163.91636-.9164-.91636zm-6.9894 6.98937 5.256-5.25604.9164.91635-5.2566 5.25609-1.2215.305z" fill="#fff"/></g><path d="m4.66663 20.0001h17.49997" stroke="#fff" stroke-width="2"/></svg>