<svg fill="none" height="28" viewBox="0 0 28 28" width="28" xmlns="http://www.w3.org/2000/svg"><rect fill="#d67af1" height="28" rx="3" width="28"/><g fill="#fff"><path d="m20.1667 6.41663h-8.5c-.7813 0-1.4167.63537-1.4167 1.41666v8.50001c0 .7813.6354 1.4167 1.4167 1.4167h8.5c.7813 0 1.4166-.6354 1.4166-1.4167v-8.50001c0-.78129-.6353-1.41666-1.4166-1.41666zm-8.5 9.91667v-8.50001h8.5l.0014 8.50001z"/><path d="m8.83335 10.6666h-1.41666v8.5c0 .7813.63537 1.4167 1.41666 1.4167h8.50005v-1.4167h-8.50005z"/><path d="m14.5 13.5-.7083-.7084-1.4167 2.125h7.0833l-2.8333-4.25z"/></g></svg>