<svg fill="none" height="28" viewBox="0 0 28 28" width="28" xmlns="http://www.w3.org/2000/svg" xmlns:xlink="http://www.w3.org/1999/xlink"><clipPath id="a"><path d="m8.16669 7h15.1667v14h-15.1667z"/></clipPath><rect fill="#af6ded" height="28" rx="3" width="28"/><g clip-path="url(#a)"><path d="m23.137 11.5754-.8392-.8714c-.2617-.2718-.6864-.2718-.9482 0l-.7175.7451 1.7874 1.8561.7175-.7451c.262-.2718.262-.7129 0-.9847zm-6.3058 3.7918c-.2002.206-.3474.4609-.4281.7413l-.4011 1.3915h-.6519c-.1127 0-.2138-.0651-.2675-.1777-.3152-.6525-1.2186-.8296-1.7379-.3875l-.3655-1.138c-.0863-.2683-.3275-.4488-.5998-.4488s-.5135.1802-.5998.4488l-.4795 1.4943c-.0395.1252-.1522.2089-.2789.2089h-.3267c-.2328 0-.4213.1958-.4213.4375s.1885.4375.4213.4375h.3267c.4903 0 .924-.3248 1.0788-.8075l.2797-.872.4426 1.3804c.0264.0821.0757.1542.1416.2072s.1454.0845.2286.0905c.01.0009.0198.0014.0295.0014.1588 0 .3052-.0932.3768-.2423l.2017-.4191c.0732-.1529.2091-.1693.2641-.1693s.1909.0161.2683.1786c.1943.4019.5843.6518 1.0169.6518h1.6641v1.3128h-7.58358v-11.37254h4.21218v2.84324c0 .3636.2817.6559.632.6559h2.7394v2.1329l1.2639-1.3011v-2.0371c0-.3472-.1361-.68357-.3731-.92939l-2.2089-2.29386c-.237-.2461-.5582-.38555-.8924-.38555h-5.37308c-.69751.00273-1.26363.59062-1.26363 1.31496v11.37284c0 .7243.56612 1.3122 1.26363 1.3122h7.58178c.6978 0 1.2657-.5879 1.2657-1.3122v-2.0566l3.5458-3.7072-1.7874-1.8561zm-1.9251-6.9456 2.0036 2.0803h-2.0036z" fill="#fff"/></g></svg>