<svg width="128" height="128" viewBox="0 0 128 128" fill="none" xmlns="http://www.w3.org/2000/svg">
<rect width="128" height="128" fill="white"/>
<path opacity="0.3" d="M48.9912 31.7476L58.8938 42.7664C60.4554 44.413 61.3261 46.5966 61.3261 48.8668V74.6208L48.9812 65.9927L48.9912 31.7476Z" fill="#787DFF"/>
<path opacity="0.5" d="M41.3024 30.2117L57.621 41.8415C58.693 42.5895 59.5823 43.5702 60.2224 44.7104C60.8626 45.8506 61.237 47.1208 61.3178 48.4261C61.3178 48.5664 61.3178 48.7099 61.3178 48.8502V74.6042L41.2991 64.0461L41.3024 30.2117Z" fill="#787DFF"/>
<path d="M61.3266 74.8751L43.2897 69.0986C41.555 68.5617 40.0245 67.5096 38.9012 66.082C37.7779 64.6543 37.115 62.9185 37.0005 61.1049C37.0005 60.9513 37.0005 60.7977 37.0005 60.6441V34.4661L56.5955 42.039C57.9038 42.5274 59.0442 43.3819 59.8807 44.5009C60.7171 45.6198 61.2144 46.9559 61.3133 48.3498C61.3133 48.4867 61.3133 48.6236 61.3133 48.7605L61.3266 74.8751Z" fill="#787DFF"/>
<path opacity="0.3" d="M79.0092 31.7476L69.1066 42.7664C67.5489 44.4088 66.6786 46.5857 66.6743 48.8501V74.6041L79.0192 65.976L79.0092 31.7476Z" fill="#FD739C"/>
<path opacity="0.5" d="M86.6998 30.2117L70.3811 41.8415C69.3091 42.5895 68.4199 43.5702 67.7797 44.7104C67.1396 45.8506 66.7651 47.1208 66.6843 48.4261C66.6843 48.5664 66.6843 48.7099 66.6843 48.8502V74.6042L86.7031 64.0461L86.6998 30.2117Z" fill="#FD739C"/>
<path d="M66.6743 74.8745L84.7079 69.0979C88.2379 67.966 90.8203 64.8073 91.0005 61.1043C91.0005 60.9507 91.0005 60.7971 91.0005 60.6435V34.4655L71.4121 42.0384C70.1034 42.5266 68.9625 43.381 68.1255 44.4999C67.2884 45.6188 66.7905 46.955 66.691 48.3492C66.691 48.4872 66.691 48.6241 66.691 48.7599L66.6743 74.8745Z" fill="#FD739C"/>
<path d="M23.6589 94.6419L18.6446 84.7739H16V99.5963H18.2422V88.6711L22.7922 97.4801H24.5275L29.0544 88.6498V99.5963H31.2966V84.7739H28.6521L23.6589 94.6419Z" fill="black"/>
<path d="M38.8074 88.8393C38.0349 88.8309 37.2686 88.9787 36.5545 89.2739C35.897 89.5425 35.3156 89.9689 34.8618 90.5156C34.4127 91.0727 34.1432 91.7531 34.089 92.4669H36.333C36.3694 92.1986 36.4626 91.9412 36.6062 91.7118C36.7499 91.4824 36.9407 91.2863 37.1661 91.1365C37.6481 90.8268 38.2117 90.6686 38.7843 90.6824C39.417 90.6555 40.0353 90.8756 40.509 91.2961C40.9533 91.7053 41.1754 92.3191 41.1754 93.1374V93.329H38.4263C36.9599 93.329 35.8314 93.6246 35.0408 94.2159C34.6608 94.4903 34.354 94.854 34.1475 95.275C33.941 95.696 33.8412 96.1614 33.8568 96.6301C33.8516 97.1908 33.998 97.7424 34.2804 98.2266C34.586 98.7369 35.0347 99.1459 35.5708 99.4027C36.2587 99.7227 37.0124 99.8752 37.7705 99.8479C38.6886 99.8479 39.4278 99.6493 39.9932 99.2537C40.5375 98.8815 40.9809 98.3799 41.2836 97.7938L41.4732 99.5925H43.423V93.1374C43.423 91.8106 43.0206 90.7628 42.2159 89.9941C41.4112 89.2254 40.275 88.8405 38.8074 88.8393ZM40.7235 96.4421C40.504 96.9046 40.168 97.302 39.7486 97.5951C39.2954 97.8966 38.7592 98.0485 38.2154 98.0297C37.595 98.0297 37.1046 97.892 36.7442 97.6164C36.5707 97.4849 36.4317 97.3132 36.3391 97.1161C36.2464 96.919 36.203 96.7023 36.2125 96.4847C36.2096 96.2603 36.2586 96.0384 36.3558 95.8362C36.453 95.634 36.5956 95.457 36.7726 95.3193C37.1472 95.0094 37.7788 94.8539 38.6674 94.8527H41.163C41.1121 95.4045 40.9632 95.9427 40.7235 96.4421V96.4421Z" fill="black"/>
<path d="M52.4249 93.8681C51.7852 93.6553 51.1343 93.4776 50.4751 93.336C49.8883 93.2071 49.3172 93.015 48.7718 92.763C48.3405 92.5525 48.1254 92.2634 48.1266 91.8956C48.1242 91.7191 48.1654 91.5446 48.2464 91.3878C48.3274 91.2309 48.4457 91.0965 48.591 90.9963C48.9012 90.7621 49.339 90.6415 49.9026 90.6415C50.3937 90.6157 50.8799 90.7494 51.2887 91.0229C51.46 91.148 51.6038 91.3071 51.7112 91.4901C51.8185 91.6732 51.8871 91.8765 51.9126 92.0872H54.0715C53.9439 91.0572 53.5173 90.2595 52.7918 89.6942C52.0662 89.129 51.115 88.844 49.9381 88.8392C48.669 88.8392 47.6817 89.1461 46.9762 89.7599C46.6371 90.0394 46.3653 90.392 46.1812 90.7913C45.997 91.1905 45.9053 91.6262 45.9127 92.0659C45.8976 92.3545 45.9413 92.6431 46.0413 92.9142C46.1412 93.1854 46.2953 93.4333 46.4941 93.6429C46.9082 94.0474 47.4071 94.3546 47.9546 94.5422C48.5332 94.7522 49.1254 94.9223 49.7271 95.0513C50.3423 95.159 50.9446 95.3302 51.5244 95.5622C51.9534 95.7538 52.1696 96.1174 52.1696 96.6531C52.1672 96.8396 52.1243 97.0233 52.0438 97.1914C51.9633 97.3596 51.8472 97.5082 51.7035 97.627C51.3939 97.9096 50.8999 98.0509 50.2217 98.0509C49.6208 98.0795 49.0291 97.8955 48.5502 97.5312C48.1493 97.2207 47.8661 96.7827 47.7473 96.2895H45.4731C45.525 96.8 45.6837 97.2938 45.9391 97.7389C46.1944 98.1839 46.5405 98.57 46.955 98.8722C47.814 99.5226 48.9071 99.8478 50.2341 99.8478C51.5339 99.8478 52.5602 99.5297 53.3129 98.8935C53.672 98.6092 53.9596 98.2447 54.1526 97.8291C54.3456 97.4136 54.4386 96.9586 54.4243 96.5006C54.4243 95.739 54.2411 95.1607 53.8748 94.7657C53.4736 94.3505 52.9752 94.042 52.4249 93.8681Z" fill="black"/>
<path d="M59.7564 86.425H57.7889L57.5142 89.0858H55.7151V90.9786H57.5142V96.1653C57.5142 97.452 57.8173 98.3454 58.4235 98.8456C59.0297 99.3459 59.848 99.596 60.8784 99.596H62.6136V97.6909H61.4066C60.8004 97.6909 60.3738 97.5815 60.1268 97.3627C59.8799 97.1439 59.7564 96.7448 59.7564 96.1653V90.9786H62.7182V89.0929H59.7564V86.425Z" fill="black"/>
<path d="M72.3674 89.5276C71.552 89.0552 70.6222 88.8171 69.6803 88.8393C68.7068 88.8175 67.7454 89.0589 66.8975 89.5382C66.1057 90 65.4605 90.6765 65.0364 91.4895C64.5768 92.3864 64.3477 93.3838 64.3699 94.3915C64.3473 95.3864 64.5805 96.3704 65.047 97.2492C65.4799 98.0507 66.1283 98.7149 66.9188 99.1668C67.7551 99.6351 68.7008 99.8726 69.659 99.855C70.8998 99.855 71.9402 99.5233 72.7804 98.8599C73.5933 98.2346 74.1832 97.3637 74.4625 96.3765H72.2185C72.0209 96.8546 71.6859 97.2633 71.2561 97.5508C70.7805 97.8539 70.2243 98.0055 69.6608 97.9854C68.8906 97.9935 68.1459 97.7096 67.5764 97.1907C66.9772 96.6621 66.6422 95.8893 66.5713 94.8722H74.7443C74.7585 94.6753 74.7691 94.4944 74.7762 94.3401C74.7833 94.1857 74.7869 94.0261 74.7869 93.8842C74.7966 93.0038 74.5779 92.1359 74.1523 91.3653C73.7319 90.6043 73.1156 89.9697 72.3674 89.5276V89.5276ZM66.6121 93.3503C66.7397 92.4633 67.0907 91.7928 67.6756 91.3493C68.2437 90.9077 68.945 90.6725 69.6644 90.6824C70.4015 90.6575 71.1204 90.9151 71.6744 91.4026C71.9451 91.6508 72.1618 91.9522 72.3112 92.2879C72.4607 92.6235 72.5395 92.9864 72.5429 93.3538L66.6121 93.3503Z" fill="black"/>
<path d="M79.3068 91.092L79.1172 89.1H77.1072V99.603H79.3529V94.5564C79.3529 93.6967 79.4977 93.0226 79.7872 92.5342C80.0505 92.0707 80.4583 91.7062 80.9482 91.4965C81.4757 91.2841 82.0405 91.1798 82.609 91.1896H83.2223V88.8392C82.3881 88.8138 81.5635 89.0228 80.8418 89.4423C80.1896 89.8421 79.6588 90.4125 79.3068 91.092V91.092Z" fill="black"/>
<path d="M87.5381 89.0939H85.2959V99.5969H87.5381V89.0939Z" fill="black"/>
<path d="M95.1344 96.8652L91.9173 89.0939H89.4836L93.6313 98.7295H94.2446L91.7276 104.257H94.0975L100.867 89.0939H98.4986L95.1344 96.8652Z" fill="black"/>
<path d="M111.29 91.4468C110.839 90.6448 110.181 89.9793 109.384 89.5204C108.559 89.0687 107.633 88.832 106.692 88.832C105.751 88.832 104.825 89.0687 103.999 89.5204C103.198 89.9768 102.537 90.6428 102.085 91.4468C101.597 92.3309 101.353 93.3286 101.376 94.3382C101.353 95.3459 101.593 96.3422 102.074 97.2278C102.518 98.0312 103.173 98.698 103.967 99.156C104.79 99.6211 105.721 99.8587 106.665 99.8443C107.613 99.8576 108.547 99.6202 109.374 99.156C110.175 98.6995 110.838 98.0329 111.29 97.2278C111.777 96.3441 112.021 95.3471 111.999 94.3382C112.021 93.3287 111.776 92.3313 111.29 91.4468V91.4468ZM109.269 96.3249C109.018 96.82 108.633 97.2343 108.158 97.5205C107.706 97.7877 107.19 97.9269 106.665 97.9232C106.144 97.9276 105.632 97.7882 105.185 97.5205C104.714 97.2321 104.333 96.8181 104.084 96.3249C103.783 95.7099 103.637 95.03 103.661 94.3453C103.637 93.6606 103.783 92.9807 104.084 92.3657C104.335 91.8698 104.72 91.4547 105.196 91.1683C105.538 90.963 105.919 90.8308 106.315 90.7801C106.711 90.7294 107.113 90.7613 107.496 90.8738C107.879 90.9863 108.235 91.1769 108.54 91.4337C108.846 91.6904 109.095 92.0077 109.273 92.3657C109.566 92.9829 109.708 93.662 109.684 94.3453C109.71 95.0292 109.567 95.7091 109.269 96.3249Z" fill="black"/>
<path d="M87.8408 84.3748C87.5683 84.0939 87.2176 83.9016 86.8344 83.8228C86.4512 83.744 86.0532 83.7823 85.6921 83.9329C85.331 84.0835 85.0235 84.3393 84.8095 84.667C84.5956 84.9948 84.4852 85.3794 84.4925 85.7709C84.4925 86.2884 84.6979 86.7847 85.0636 87.1506C85.4292 87.5165 85.9252 87.7221 86.4423 87.7221C86.9594 87.7221 87.4553 87.5165 87.821 87.1506C88.1866 86.7847 88.392 86.2884 88.392 85.7709C88.3995 85.5129 88.3545 85.2562 88.2597 85.0162C88.165 84.7762 88.0224 84.558 87.8408 84.3748V84.3748ZM85.891 86.9593V84.852L87.3941 85.7549L85.891 86.9593Z" fill="#FD739C"/>
</svg>
