<?xml version="1.0" encoding="UTF-8" standalone="no"?>
<!DOCTYPE svg PUBLIC "-//W3C//DTD SVG 1.1//EN" "http://www.w3.org/Graphics/SVG/1.1/DTD/svg11.dtd">
<svg width="100%" height="100%" viewBox="0 0 28 28" version="1.1" xmlns="http://www.w3.org/2000/svg" xmlns:xlink="http://www.w3.org/1999/xlink" xml:space="preserve" xmlns:serif="http://www.serif.com/" style="fill-rule:evenodd;clip-rule:evenodd;stroke-linejoin:round;stroke-miterlimit:2;">
    <path d="M28,3C28,1.344 26.656,0 25,0L3,0C1.344,0 0,1.344 0,3L0,25C0,26.656 1.344,28 3,28L25,28C26.656,28 28,26.656 28,25L28,3ZM8.833,10.667L7.417,10.667L7.417,19.167C7.417,19.948 8.052,20.583 8.833,20.583L17.333,20.583L17.333,19.167L8.833,19.167L8.833,10.667ZM20.167,6.417L11.667,6.417C10.885,6.417 10.25,7.052 10.25,7.833L10.25,16.333C10.25,17.115 10.885,17.75 11.667,17.75L20.167,17.75C20.948,17.75 21.583,17.115 21.583,16.333L21.583,7.833C21.583,7.052 20.948,6.417 20.167,6.417ZM11.667,16.333L11.667,7.833L20.167,7.833L20.168,16.333L11.667,16.333ZM14.5,13.5L13.792,12.792L12.375,14.917L19.458,14.917L16.625,10.667L14.5,13.5Z" style="fill:rgb(214,122,241);"/>
</svg>
