<?xml version="1.0" encoding="UTF-8" standalone="no"?>
<!DOCTYPE svg PUBLIC "-//W3C//DTD SVG 1.1//EN" "http://www.w3.org/Graphics/SVG/1.1/DTD/svg11.dtd">
<svg width="100%" height="100%" viewBox="0 0 28 28" version="1.1" xmlns="http://www.w3.org/2000/svg" xmlns:xlink="http://www.w3.org/1999/xlink" xml:space="preserve" xmlns:serif="http://www.serif.com/" style="fill-rule:evenodd;clip-rule:evenodd;stroke-linejoin:round;stroke-miterlimit:2;">
    <path d="M28,3C28,1.344 26.656,0 25,0L3,0C1.344,0 0,1.344 0,3L0,25C0,26.656 1.344,28 3,28L25,28C26.656,28 28,26.656 28,25L28,3ZM4.667,21L22.167,21L22.167,19L4.667,19L4.667,21ZM14.578,15.394C14.625,15.394 14.671,15.389 14.718,15.377L17.029,14.799C17.13,14.774 17.223,14.721 17.297,14.647L24.4,7.545C24.618,7.326 24.739,7.036 24.739,6.728C24.739,6.419 24.618,6.129 24.4,5.911L23.484,4.994C23.047,4.558 22.287,4.558 21.85,4.994L14.747,12.097C14.673,12.171 14.621,12.264 14.595,12.365L14.017,14.676C13.996,14.761 13.994,14.85 14.013,14.936C14.031,15.022 14.068,15.103 14.122,15.172C14.176,15.241 14.245,15.297 14.324,15.336C14.403,15.374 14.49,15.394 14.578,15.394ZM15.677,12.801L20.933,7.545L21.85,8.461L16.593,13.717L15.372,14.022L15.677,12.801ZM22.667,5.811L23.583,6.728L22.667,7.644L21.75,6.728L22.667,5.811Z" style="fill:rgb(255,144,102);"/>
</svg>
